<?xml version="1.0" encoding="UTF-8"?>
<svg id="Layer_1" xmlns="http://www.w3.org/2000/svg" version="1.1" viewBox="0 0 202 56">
  <!-- Generator: Adobe Illustrator 29.0.0, SVG Export Plug-In . SVG Version: 2.1.0 Build 186)  -->
  <defs>
    <style>
      .st0 {
        fill-rule: evenodd;
      }

      .st0, .st1 {
        fill: #23b0ba;
      }

      .st2 {
        font-family: Effra-Regular, Effra;
        font-size: 24.7px;
      }

      .st3, .st4 {
        fill: #2e4a71;
      }

      .st4 {
        font-family: Effra-Bold, Effra;
        font-size: 6.7px;
        font-weight: 700;
      }
    </style>
  </defs>
  <text class="st4" transform="translate(83.1 56)"><tspan x="0" y="0">WHERE PETS COME FIRST!</tspan></text>
  <text class="st2" transform="translate(68.5 42.1)"><tspan class="st3" x="0" y="0">PET</tspan><tspan class="st1" x="50.6" y="0">CURE</tspan></text>
  <g>
    <path class="st3" d="M25.7,24.4c-1.8-.2-3.8,0-5.7.3-.8.1-1.5.3-2.3.5-4.4,1-8.4,4.8-11.2,9.2-1.7,2.7-2.8,5.6-3.3,8.3-.5,2.6-.3,5,.6,6.8.7,1.3,1.8,2.3,3.4,2.8,6.3,2.1,11.4-10.5,16.4-22.9.7-1.7,1.3-3.3,2-4.9M39.1,52c1.5-.6,2.8-1.5,3.8-2.7,1.4-1.5,2.3-3.5,2.4-5.8-.9-.8-1.9-1.3-2.9-1.8-2.6-1.3-5.1-2.5-5.8-7.1,0-.5-.2-.9-.3-1.3-1-4.1-3.2-6.5-6.1-7.8-.5-.2-1.1-.4-1.6-.6-.7,1.8-1.5,3.6-2.2,5.5-5.5,13.7-11.1,27.6-20,24.6-2.4-.8-4.1-2.3-5.1-4.2-1.3-2.4-1.5-5.4-.9-8.7.6-3.1,1.9-6.3,3.7-9.3,3.1-5,7.8-9.2,13-10.5.8-.2,1.7-.4,2.5-.5,2.5-.4,4.9-.5,7.3-.2,2-4.7,4.1-9,6.4-12,1.6-2.1,3.5-4,5.7-5.7,2.3-1.6,5-2.9,8.3-3.7l.9-.2.6.8c1,1.4,1.5,2.8,1.6,4.2,0,.9,0,1.8-.1,2.7,1.7.7,3.3,1.6,4.5,2.9,1.3,1.4,2.1,3.1,2,5.3,0,.9,0,1.7.3,2.3.2.6.6,1,1.3,1.4l.7.4v.8c0,1.6-.4,2.9-1,4.1-.7,1.2-1.7,2.2-2.9,2.9-.6.4-1.4.7-2.2,1-.5.2-1.1.4-1.7.7-2.5,1.2-4.7,3.1-2.1,8.6-4.7-1.2-5.4-8.2.9-11.2.6-.3,1.2-.5,1.9-.8.7-.3,1.4-.6,1.9-.9.7-.4,1.3-1,1.7-1.7.3-.6.5-1.2.6-2-.8-.7-1.4-1.4-1.8-2.3-.4-1.1-.6-2.2-.5-3.5,0-1.3-.5-2.3-1.3-3.2-1.1-1.2-2.9-2.1-4.6-2.6l-1.3-.4.4-1.3c.3-1,.4-2,.3-3,0-.7-.3-1.3-.6-2-2.5.7-4.5,1.7-6.3,3-2,1.4-3.7,3.2-5.1,5.1-2,2.6-3.9,6.5-5.8,10.8.6.2,1.1.4,1.6.6,3.6,1.6,6.5,4.6,7.7,9.8.1.5.2,1,.3,1.5.5,3.2,2.3,4.1,4.2,5,1.4.7,2.9,1.4,4.2,2.8l.4.4v.6c0,3.3-1.2,6.2-3.2,8.3-1.3,1.5-3,2.6-4.8,3.4-5.5,2.4-12.5,1.2-16.2-2.8,4.5,1.8,10.4,2.2,15.1.2Z"/>
    <path class="st0" d="M31.4,33.7c1,0,1.7.8,1.7,1.7s-.8,1.7-1.7,1.7-1.7-.8-1.7-1.7.8-1.7,1.7-1.7"/>
    <path class="st0" d="M48.6,14.9c.8,0,1.4.6,1.4,1.4s-.6,1.4-1.4,1.4-1.4-.6-1.4-1.4.6-1.4,1.4-1.4"/>
  </g>
</svg>